<svg xmlns="http://www.w3.org/2000/svg" width="135.266" height="40" viewBox="0 0 135.266 40"><defs><style>.a{fill:#80e315;}.b{fill:#fff;}</style></defs><g transform="translate(0 12.649)"><path class="a" d="M184.283,265.893c-.67.05-.644.124-.846.414a4.149,4.149,0,0,0-.262,1.736v2.573l-7.052,12.652h-1.486l-7.053-12.652v-2.573a4.159,4.159,0,0,0-.266-1.736c-.2-.289-.173-.364-.843-.414-.486.021-.561.116-.724.31a2.168,2.168,0,0,0-.29,1.225v3.221a2.611,2.611,0,0,0,.41,1.344l6.775,11.345a13.447,13.447,0,0,0,.706,1.417,2.337,2.337,0,0,0,.585.708h2.876a.627.627,0,0,0,.068-.049,2.216,2.216,0,0,0,.406-.481,10.964,10.964,0,0,0,.823-1.6l6.775-11.35a2.533,2.533,0,0,0,.407-1.332v-3.221a2.19,2.19,0,0,0-.286-1.225c-.165-.194-.241-.288-.725-.31m36.327,0h-3.648a5.755,5.755,0,0,0-3.253,1.664L211,270.806v-3.095a3.036,3.036,0,0,0-.286-1.457c-.185-.241-.218-.325-.775-.36-.72.055-.645.119-.829.378a3.333,3.333,0,0,0-.233,1.065v15.507a5.177,5.177,0,0,0,.256,2.266c.176.229.153.311.806.354.653-.043.627-.126.805-.354A3.52,3.52,0,0,0,211,283.55v-9.771l3.963-4.4A4.678,4.678,0,0,1,218,268.016h1.326a8.663,8.663,0,0,1,1.815.126,3.026,3.026,0,0,1,1.917,1.185,4.176,4.176,0,0,1,.7,2.694,2.151,2.151,0,0,0,.309,1.238c.178.213.292.323.8.341.639-.047.59-.11.768-.35a3.757,3.757,0,0,0,.246-1.609,5.406,5.406,0,0,0-1.68-4.3,4.764,4.764,0,0,0-3.594-1.446m56.194-7.354a3.505,3.505,0,0,0-1.549-.256h-3.368c-1.259-.02-1.817.183-1.857.269-.066.02-.305.41-.3,1.692V283.55a3.469,3.469,0,0,0,.257,1.559c.174.231.152.311.8.354.654-.043.632-.123.806-.354a3.476,3.476,0,0,0,.255-1.559V260.4h3.4a3.544,3.544,0,0,0,1.5-.251c.283-.2.365-.188.413-.806-.044-.64-.124-.623-.365-.806m-13.559,18.714c1.283.007,1.648-.229,1.658-.284.079-.031.278-.6.256-1.868v-1.375a9.01,9.01,0,0,0-.336-2.886,4.445,4.445,0,0,0-1.576-2.086l-1.856-1.476c-1.658-1.277-2.07-1.336-4.257-1.384h-2.048a4.938,4.938,0,0,0-4.232,1.6l-1.612,1.373a4.626,4.626,0,0,0-1.474,1.921,7.434,7.434,0,0,0-.327,2.6v4.374a11.2,11.2,0,0,0,.373,3.228,5.884,5.884,0,0,0,1.536,1.834l1.937,1.7a3.232,3.232,0,0,0,1.361.817,8.072,8.072,0,0,0,1.917.118h8.678a3.5,3.5,0,0,0,1.5-.254c.288-.2.367-.187.414-.809-.044-.634-.126-.618-.366-.8a3.476,3.476,0,0,0-1.548-.258h-7.638a8.385,8.385,0,0,1-2.163-.219,3.564,3.564,0,0,1-1.757-1.023l-1.1-1.2a5.963,5.963,0,0,1-1-2.8h0v-.044c-.006-.065-.016-.132-.022-.195v-.608Zm-13.682-2.121v-2.163a3.966,3.966,0,0,1,.414-1.963,3.375,3.375,0,0,1,1.035-1.1l1.589-1.156a4.837,4.837,0,0,1,3.006-.733h1.717a4.288,4.288,0,0,1,2.971.862l1.783,1.54a2.814,2.814,0,0,1,.837,1.414,5.177,5.177,0,0,1,.122,1.277v2.023Zm13.682,2.121c1.283.007,1.648-.229,1.658-.284.079-.031.278-.6.256-1.868v-1.375a9.01,9.01,0,0,0-.336-2.886,4.445,4.445,0,0,0-1.576-2.086l-1.856-1.476c-1.658-1.277-2.07-1.336-4.257-1.384h-2.048a4.938,4.938,0,0,0-4.232,1.6l-1.612,1.373a4.626,4.626,0,0,0-1.474,1.921,7.434,7.434,0,0,0-.327,2.6v4.374a11.2,11.2,0,0,0,.373,3.228,5.884,5.884,0,0,0,1.536,1.834l1.937,1.7a3.232,3.232,0,0,0,1.361.817,8.072,8.072,0,0,0,1.917.118h8.678a3.5,3.5,0,0,0,1.5-.254c.288-.2.367-.187.414-.809-.044-.634-.126-.618-.366-.8a3.476,3.476,0,0,0-1.548-.258h-7.638a8.385,8.385,0,0,1-2.163-.219,3.564,3.564,0,0,1-1.757-1.023l-1.1-1.2a5.963,5.963,0,0,1-1-2.8h0v-.044c-.006-.065-.016-.132-.022-.195v-.608Zm-13.682-2.121v-2.163a3.966,3.966,0,0,1,.414-1.963,3.375,3.375,0,0,1,1.035-1.1l1.589-1.156a4.837,4.837,0,0,1,3.006-.733h1.717a4.288,4.288,0,0,1,2.971.862l1.783,1.54a2.814,2.814,0,0,1,.837,1.414,5.177,5.177,0,0,1,.122,1.277v2.023Zm-4.952,4.385a1.107,1.107,0,0,0-1.1.934,3.554,3.554,0,0,1-1.681,2.46,5.609,5.609,0,0,1-2.667.44l-.829-.011a6.158,6.158,0,0,1-2.145-.316,2.977,2.977,0,0,1-1.5-1.185,6.112,6.112,0,0,1-.6-3.309c0-.143,0-.286,0-.428V268.016h8.483a3.522,3.522,0,0,0,1.5-.255c.285-.2.366-.185.41-.806-.042-.638-.123-.621-.365-.8a3.43,3.43,0,0,0-1.547-.259h-8.483V260.04a3.5,3.5,0,0,0-.258-1.563c-.174-.229-.151-.307-.8-.353-.653.045-.63.124-.807.353a3.525,3.525,0,0,0-.256,1.563v5.853h-2.68a3.417,3.417,0,0,0-1.543.259c-.244.181-.324.164-.369.8.044.621.126.605.413.806a3.512,3.512,0,0,0,1.5.255h2.68v10.746c.014,2.155.067,3.382,1.339,4.819a6.2,6.2,0,0,0,4.979,1.882l.83.013c2.35-.018,3.985-.3,5.324-1.893a5.707,5.707,0,0,0,1.276-3.007,1.069,1.069,0,0,0-1.107-1.06" transform="translate(-165.463 -258.125)"/></g><path class="a" d="M589.959,350.934h1.589v.177h-.689v2h-.207v-2h-.693Z" transform="translate(-481.347 -314.45)"/><path class="a" d="M597.266,353.117v-2.181h.313l.717,1.923h.006l.7-1.923h.313v2.181h-.206v-1.945h-.006l-.717,1.945H598.2l-.72-1.945h-.006v1.945Z" transform="translate(-486.777 -314.451)"/><g transform="translate(21.994)"><path class="a" d="M266.9,299.734c1.285.008,1.65-.229,1.659-.284.08-.031.276-.6.256-1.868v-1.375a8.948,8.948,0,0,0-.336-2.886,4.456,4.456,0,0,0-1.573-2.087l-1.857-1.475c-1.659-1.278-2.072-1.338-4.257-1.385h-2.047a4.962,4.962,0,0,0-4.234,1.6l-1.612,1.375a4.611,4.611,0,0,0-1.473,1.92,7.49,7.49,0,0,0-.328,2.6v4.374a11.073,11.073,0,0,0,.374,3.228,5.9,5.9,0,0,0,1.535,1.834l1.938,1.7a3.206,3.206,0,0,0,1.363.816,7.919,7.919,0,0,0,1.914.117H266.9a3.524,3.524,0,0,0,1.5-.251c.286-.2.365-.188.411-.81-.044-.635-.126-.619-.366-.8a3.493,3.493,0,0,0-1.549-.256h-7.636a8.389,8.389,0,0,1-2.163-.22,3.582,3.582,0,0,1-1.758-1.023l-1.1-1.2a5.967,5.967,0,0,1-1-2.8h0v-.044c-.008-.065-.014-.133-.022-.2v-.608Zm-13.68-4.284a3.947,3.947,0,0,1,.415-1.962,3.34,3.34,0,0,1,1.034-1.1l1.588-1.157a4.85,4.85,0,0,1,3.008-.732h1.717a4.289,4.289,0,0,1,2.972.864l1.781,1.539a2.838,2.838,0,0,1,.839,1.415,5.162,5.162,0,0,1,.118,1.275v2.022H253.221Z" transform="translate(-251.1 -267.957)"/><path class="b" d="M597.634,236.833a14,14,0,0,0,14.005-14c0-.072-.007-.141-.007-.209s.007-.139.007-.209A14.008,14.008,0,0,0,597.634,208.4c-6.65,0-12.141,3.965-14.367,11.493a6.241,6.241,0,0,1,5.609-3.616,6.339,6.339,0,0,1,0,12.676,6.242,6.242,0,0,1-5.609-3.616c2.225,6.717,6.614,11.492,14.367,11.492m-7.547-6.663a7.458,7.458,0,0,0,7.324-7.547v-.008a7.459,7.459,0,0,0-7.324-7.55,7.081,7.081,0,0,0-3.6.986,8.447,8.447,0,0,1,5.483-2.512,9.081,9.081,0,0,1,0,18.163,8.446,8.446,0,0,1-5.483-2.513,7.088,7.088,0,0,0,3.6.982m5.233,4.422a11.905,11.905,0,0,1-6.93-2.215,10.206,10.206,0,0,1-1.783-1.724,10.374,10.374,0,0,0,7.116,2.778,10.726,10.726,0,0,0,10.6-10.808v-.008a10.727,10.727,0,0,0-10.6-10.811,10.379,10.379,0,0,0-7.116,2.778,10.216,10.216,0,0,1,1.783-1.724,11.973,11.973,0,1,1,6.93,21.734" transform="translate(-498.367 -208.404)"/></g></svg>