<svg xmlns="http://www.w3.org/2000/svg" width="40" height="40" viewBox="0 0 40 40"><defs><style>.a{fill:#80e315;}</style></defs><path class="a" d="M61,41A20,20,0,1,0,81,61,20,20,0,0,0,61,41ZM55.472,71.365H50.635V57.545h4.837ZM53.053,55.472a2.419,2.419,0,1,1,2.419-2.419,2.419,2.419,0,0,1-2.419,2.419ZM71.365,71.365H67.219V64.631c0-1.606-.178-3.672-2.379-3.672-2.235,0-2.577,1.749-2.577,3.555v6.85H58.236V57.545h3.853V59.41h.059c.574-1.089,1.976-1.865,4.065-1.865,4.347,0,5.151,2.5,5.151,6.225Z" transform="translate(-41 -41)"/></svg>