<svg xmlns="http://www.w3.org/2000/svg" width="40" height="40" viewBox="0 0 40 40"><defs><style>.a{fill:#80e315;}</style></defs><path class="a" d="M20,40A20.005,20.005,0,0,1,12.215,1.572a20.005,20.005,0,0,1,15.57,36.856A19.875,19.875,0,0,1,20,40ZM12.311,7a1.393,1.393,0,0,0-.895.381L7.751,11.045a2.7,2.7,0,0,0-.744,1.983c-.093,1.912.807,4.063,1.792,6.1a32.221,32.221,0,0,0,9.813,10.7C20.631,31.145,23.7,32.9,27.017,33a2.624,2.624,0,0,0,1.957-.744L32.64,28.62a1.251,1.251,0,0,0,.351-1.023,1.352,1.352,0,0,0-.656-.986l-5.319-3.14h-.028a1.3,1.3,0,0,0-.663-.169,2.113,2.113,0,0,0-1.238.445l-1.57,1.6a.519.519,0,0,1-.365.119,1.275,1.275,0,0,1-.338-.051c-1.609-.339-2.933-1.611-4.1-2.732-.244-.235-.475-.456-.708-.67a11.765,11.765,0,0,1-3.472-5.125.656.656,0,0,1,.138-.385l1.351-1.35a1.614,1.614,0,0,0,.33-1.846L13.4,7.711A1.327,1.327,0,0,0,12.311,7Z"/></svg>