<svg aria-hidden="true" style="position: absolute; width: 0; height: 0; overflow: hidden;" version="1.1" xmlns="http://www.w3.org/2000/svg" xmlns:xlink="http://www.w3.org/1999/xlink">
<defs>

<symbol id="icon_down-arrow-circle" viewBox="0 0 24 24">
  <path d="M12 24C5.383 24 0 18.617 0 12S5.383 0 12 0s12 5.383 12 12-5.383 12-12 12zm0-23C5.935 1 1 5.935 1 12s4.935 11 11 11 11-4.935 11-11S18.065 1 12 1z"/>
  <path d="M12 19a.5.5 0 01-.5-.5v-13a.5.5 0 011 0v13a.5.5 0 01-.5.5z"/>
  <path d="M12 19a.502.502 0 01-.354-.146l-4-4a.5.5 0 01.707-.707L12 17.793l3.646-3.646a.5.5 0 01.707.707l-4 4A.498.498 0 0112 19z"/>
</symbol>
<symbol id="icon_next"
	 viewBox="0 0 512.002 512.002" style="enable-background:new 0 0 512.002 512.002;" xml:space="preserve">
<g>
	<g>
		<path d="M388.425,241.951L151.609,5.79c-7.759-7.733-20.321-7.72-28.067,0.04c-7.74,7.759-7.72,20.328,0.04,28.067l222.72,222.105
			L123.574,478.106c-7.759,7.74-7.779,20.301-0.04,28.061c3.883,3.89,8.97,5.835,14.057,5.835c5.074,0,10.141-1.932,14.017-5.795
			l236.817-236.155c3.737-3.718,5.834-8.778,5.834-14.05S392.156,245.676,388.425,241.951z"/>
	</g>
</g><g></g><g></g><g></g><g></g><g></g><g></g><g></g><g></g><g></g><g></g><g></g><g></g><g></g><g></g><g></g>
</symbol>
<symbol  id="icon_back_arrow" viewBox="0 0 476.213 476.213" style="enable-background:new 0 0 476.213 476.213;" xml:space="preserve">
<polygon points="476.213,223.107 57.427,223.107 151.82,128.713 130.607,107.5 0,238.106 130.607,368.714 151.82,347.5
	57.427,253.107 476.213,253.107 "/>
<g></g><g></g><g></g><g></g><g></g><g></g><g></g><g></g><g></g><g></g><g></g><g></g><g></g><g></g><g></g>
</symbol>

<symbol id="icon-twitter" viewBox="0 0 40 40"><defs><style>.a{fill:#0d345b;}</style></defs><path class="a" d="M6141,11049a19.931,19.931,0,1,1,7.784-1.571A19.874,19.874,0,0,1,6141,11049Zm-11-13.149h0a12.788,12.788,0,0,0,6.918,2.025,12.991,12.991,0,0,0,5.509-1.168,12.135,12.135,0,0,0,4.025-3.016,13.282,13.282,0,0,0,3.308-8.657c0-.226,0-.412-.011-.585a9.077,9.077,0,0,0,2.249-2.335,9.014,9.014,0,0,1-2.59.71,4.534,4.534,0,0,0,1.985-2.5,9.149,9.149,0,0,1-2.867,1.1,4.516,4.516,0,0,0-7.809,3.086,4.479,4.479,0,0,0,.117,1.029,12.851,12.851,0,0,1-9.3-4.717,4.512,4.512,0,0,0,1.4,6.025,4.482,4.482,0,0,1-2.043-.563.393.393,0,0,0,0,.059,4.521,4.521,0,0,0,3.622,4.423,4.472,4.472,0,0,1-1.19.161,4.569,4.569,0,0,1-.848-.083,4.512,4.512,0,0,0,4.217,3.136,9,9,0,0,1-5.606,1.933A9.38,9.38,0,0,1,6130,11035.852Z" transform="translate(-6121 -11009.001)"/>
</symbol>

<symbol id="icon-facebook" viewBox="0 0 40 40"><defs><style>.a{fill:#0d345b;}</style></defs><g transform="translate(51.999 -6.001)"><path class="a" d="M5465.24,10186h0a19.979,19.979,0,0,1-12.021-6.739,20.187,20.187,0,0,1,1.006-27.368,20.012,20.012,0,0,1,34.142,14.228,20.2,20.2,0,0,1-4.852,13.141,19.979,19.979,0,0,1-12.024,6.738v-14.062h4.66l.887-5.817h-5.547v-3.772a3.271,3.271,0,0,1,.7-2.169,3.212,3.212,0,0,1,2.562-.975h2.521v-4.951a30.55,30.55,0,0,0-4.478-.393,7.515,7.515,0,0,0-5.49,2.023,8.018,8.018,0,0,0-2.063,5.806v4.431h-5.078v5.817h5.078V10186Z" transform="translate(-5500.365 -10140)"/></g>
</symbol>

<symbol id="icon-linkedin" viewBox="0 0 40 40"><defs><style>.a{fill:#0d345b;}</style></defs><path class="a" d="M61,41A20,20,0,1,0,81,61,20,20,0,0,0,61,41ZM55.472,71.365H50.635V57.545h4.837ZM53.053,55.472a2.419,2.419,0,1,1,2.419-2.419,2.419,2.419,0,0,1-2.419,2.419ZM71.365,71.365H67.219V64.631c0-1.606-.178-3.672-2.379-3.672-2.235,0-2.577,1.749-2.577,3.555v6.85H58.236V57.545h3.853V59.41h.059c.574-1.089,1.976-1.865,4.065-1.865,4.347,0,5.151,2.5,5.151,6.225Z" transform="translate(-41 -41)"/>
</symbol>

<symbol id="icon-mail" viewBox="0 0 40 40"><defs><style>.a{fill:#0d345b;}</style></defs><path class="a" d="M6141,11049a19.931,19.931,0,1,1,7.784-1.571A19.874,19.874,0,0,1,6141,11049Zm-8-28a2,2,0,0,0-1.991,2l-.011,12a2,2,0,0,0,2,2h16a2,2,0,0,0,2-2v-12a2,2,0,0,0-2-2Zm8,9h0l-8-5v-2l8,5,8-5v2l-8,5Z" transform="translate(-6121 -11009.001)"/>
</symbol>

<symbol id="icon-back-arrow-strong" viewBox="0 0 40 40"><defs><style>.a{fill:#80e315;}</style></defs><path class="a" d="M20.563,40.563a20,20,0,1,1,20-20A20,20,0,0,1,20.563,40.563Zm9.355-23.548H20.563V11.3a.968.968,0,0,0-1.653-.685L9.692,19.877a.959.959,0,0,0,0,1.363l9.218,9.266a.968.968,0,0,0,1.653-.685v-5.71h9.355a.971.971,0,0,0,.968-.968V17.982A.971.971,0,0,0,29.917,17.014Z" transform="translate(-0.563 -0.563)"/>
</symbol>

<symbol id="icon-mobile-cloud" viewBox="0 0 100.003 100"><defs><style>.a{fill:#80e315;}</style></defs><g transform="translate(-399 -962)"><g transform="translate(1017.416 720.635)"><rect class="a" width="10.479" height="2.159" transform="translate(-573.674 288.599)"/><rect class="a" width="10.479" height="2.159" transform="translate(-573.674 330.888)"/><path class="a" d="M-581.988,341.365a7.665,7.665,0,0,1-7.657-7.655V310.877h-7.593a21.127,21.127,0,0,1-20.622-16.389,21.228,21.228,0,0,1,15.843-25.465l.7-.163-.077-.717a20.275,20.275,0,0,1-.115-2.182,24.725,24.725,0,0,1,11.876-21.046,24.562,24.562,0,0,1,12.7-3.551,24.44,24.44,0,0,1,21.079,11.874l.3.5.573-.13a15.548,15.548,0,0,1,3.447-.387,16.189,16.189,0,0,1,16.129,15.091l.05.761h.67A21.108,21.108,0,0,1-518.413,289.7a21.221,21.221,0,0,1-21.2,21.175h-7.613V333.71a7.665,7.665,0,0,1-7.658,7.655Zm0-57.589a5.928,5.928,0,0,0-5.9,5.894v44.04a5.928,5.928,0,0,0,5.9,5.9h27.112a5.929,5.929,0,0,0,5.9-5.893V289.671a5.929,5.929,0,0,0-5.9-5.9Zm5.061-40.672a22.7,22.7,0,0,0-16.145,6.7,22.681,22.681,0,0,0-6.673,16.151,21.6,21.6,0,0,0,.3,3.522.9.9,0,0,1-.164.644.875.875,0,0,1-.576.346A19.324,19.324,0,0,0-616.7,289.7a19.461,19.461,0,0,0,19.44,19.414h7.611V289.671a7.665,7.665,0,0,1,7.658-7.654h27.109a7.665,7.665,0,0,1,7.658,7.654v19.444l7.779,0a19.38,19.38,0,0,0,18.987-16.2,19.294,19.294,0,0,0-3.33-14.493,19.308,19.308,0,0,0-12.607-7.9.878.878,0,0,1-.744-.873s.017-.254.017-.289a14.334,14.334,0,0,0-.629-4.209A14.3,14.3,0,0,0-551.5,254.978a14.374,14.374,0,0,0-4.212.633.907.907,0,0,1-.282.047.852.852,0,0,1-.757-.459,22.8,22.8,0,0,0-20.157-12.1Z" transform="translate(0 0)"/><path class="a" d="M-587.238,270.559a19.854,19.854,0,0,1,18.774-18.765v2.161a17.689,17.689,0,0,0-16.611,16.6Z" transform="translate(-6.821 -0.004)"/><path class="a" d="M-573.294,345.035a1.081,1.081,0,0,1-1.08-1.08V311.469a1.081,1.081,0,0,1,1.08-1.081h32.5a1.081,1.081,0,0,1,1.079,1.081v32.487a1.081,1.081,0,0,1-1.079,1.08Zm1.083-2.157h30.338V312.551h-30.338Z" transform="translate(-11.372 -17.84)"/></g></g>
</symbol>

<symbol id="icon-mobile-wi-fi" viewBox="0 0 49.789 90"><defs><style>.a{fill:#80e315;}</style></defs><g transform="translate(472.998 -242.365)"><path class="a" d="M-465.933,332.365A7.073,7.073,0,0,1-473,325.3v-75.87a7.073,7.073,0,0,1,7.065-7.066h35.659a7.073,7.073,0,0,1,7.066,7.066v3.225a1,1,0,0,1-1,1,1,1,0,0,1-1-1v-3.225a5.08,5.08,0,0,0-5.074-5.074h-29.793l1.887,3.4a2.8,2.8,0,0,0,2.445,1.439h15.261a1,1,0,0,1,1,1,1,1,0,0,1-1,1h-15.261a4.794,4.794,0,0,1-4.187-2.463l-2.425-4.365h-3.587a5.08,5.08,0,0,0-5.073,5.074V325.3a5.079,5.079,0,0,0,5.073,5.073h35.659A5.079,5.079,0,0,0-425.2,325.3V285.374a1,1,0,0,1,1-1,1,1,0,0,1,1,1V325.3a7.073,7.073,0,0,1-7.066,7.065Z" transform="translate(0 0)"/><path class="a" d="M-407.243,292.06a3.253,3.253,0,0,1-3.041-2.044,3.247,3.247,0,0,1,.71-3.587,3.273,3.273,0,0,1,2.332-.967,3.273,3.273,0,0,1,2.333.967,3.245,3.245,0,0,1,.709,3.588A3.253,3.253,0,0,1-407.243,292.06Z" transform="translate(-33.757 -4.695)"/><path class="a" d="M-415.266,282.342a1.405,1.405,0,0,1-1-.414,1.406,1.406,0,0,1-.415-1,1.406,1.406,0,0,1,.415-1,13.179,13.179,0,0,1,9.379-3.889,13.173,13.173,0,0,1,9.377,3.889,1.369,1.369,0,0,1,.3,1.535,1.4,1.4,0,0,1-1.3.878,1.408,1.408,0,0,1-1-.414,10.363,10.363,0,0,0-7.378-3.058,10.365,10.365,0,0,0-7.378,3.058A1.407,1.407,0,0,1-415.266,282.342Z" transform="translate(-34.112 -5.24)"/><path class="a" d="M-390.074,274.963a1.4,1.4,0,0,1-1-.415,21.6,21.6,0,0,0-15.377-6.359,21.6,21.6,0,0,0-15.376,6.359,1.4,1.4,0,0,1-1,.415,1.4,1.4,0,0,1-1-.415,1.405,1.405,0,0,1-.415-1,1.41,1.41,0,0,1,.414-1,24.422,24.422,0,0,1,17.376-7.2,24.42,24.42,0,0,1,17.376,7.2,1.407,1.407,0,0,1,.415,1,1.409,1.409,0,0,1-.414,1A1.406,1.406,0,0,1-390.074,274.963Z" transform="translate(-34.549 -5.858)"/></g>
</symbol>

<symbol id="image-overlay-top" viewBox="0 0 1920 96" style="enable-background:new 0 0 1920 96;" xml:space="preserve">
<path class="st0" d="M1.3,48.4V0.1h1918v48.3C1919.3,48.4,986.9,156.3,1.3,48.4z"/>
</symbol>

<symbol id="image-overlay-bottom" viewBox="0 0 1920 96" style="enable-background:new 0 0 1920 96;" xml:space="preserve">
<path class="st0" d="M1.3,48v48.3h1918V48C1919.3,48,986.9-59.9,1.3,48z"/>
</symbol>

<symbol  id="icon-gift" viewBox="0 0 100 93.378"><defs><style>.a{fill:#80e315;}</style></defs><g transform="translate(-4.998 -21.527)"><path class="a" d="M203.124,32.511a5.347,5.347,0,0,0-3.8-1.584l-4.415-.008.6-.613a5.116,5.116,0,0,0-7.143-7.327l-.078.077L181,30.316l-5.346-5.366a5.081,5.081,0,0,0-3.615-1.505h-.01a5.12,5.12,0,0,0-4.568,7.423l-5.017-.009h-.01a5.383,5.383,0,0,0-5.383,5.374l-.011,5.929a1.2,1.2,0,0,0,1.193,1.2H160V64.7a5.39,5.39,0,0,0,5.384,5.384h30.964A5.39,5.39,0,0,0,201.73,64.7V43.36h1.758a1.2,1.2,0,0,0,1.2-1.193l.011-5.845A5.348,5.348,0,0,0,203.124,32.511Zm-13.155-7.76a2.726,2.726,0,0,1,3.837,3.873L191.582,30.9H183.8ZM170.1,26.631a2.708,2.708,0,0,1,1.924-.795h.005a2.709,2.709,0,0,1,1.926.8l4.234,4.25-7.766-.07-.331-.333a2.726,2.726,0,0,1,.007-3.855Zm4.372,41.061h-9.09A3,3,0,0,1,162.39,64.7V43.36h12.1Zm.014-26.723H159.429l.009-4.732a2.993,2.993,0,0,1,2.993-2.988h.006l12.055.022Zm10.635,26.723h-8.258l.013-24.332h8.258Zm.014-26.723h-8.258l0-7.693,8.258.015ZM199.34,64.7a3,3,0,0,1-2.993,2.993h-8.834l.013-24.332H199.34Zm2.955-23.729H187.526l0-7.673,11.786.022a2.993,2.993,0,0,1,2.988,3h0Z" transform="translate(-121.752)"/><path class="a" d="M93.647,297.2l-.635.342a7.16,7.16,0,0,0-8.567-2.226l-.027.014-1.337.72A9.349,9.349,0,0,0,72.3,295.022L65.534,298.7h-9a13.082,13.082,0,0,1-5.664-1.3l-1.232-.6a21,21,0,0,0-21.852,2.134c-.026.02-.052.04-.076.062l-2.974,2.648c-1.084.965-12.285,6.849-19.09,10.331a1.2,1.2,0,1,0,1.089,2.128c2.985-1.527,17.957-9.219,19.59-10.673l2.938-2.615A18.615,18.615,0,0,1,48.6,298.959l1.232.6a15.485,15.485,0,0,0,6.7,1.536H68.488a7.7,7.7,0,0,1,7.587,6.434l-8.841-.4a51.729,51.729,0,0,0-9.4.434,1.2,1.2,0,1,0,.3,2.371l.026,0a49.3,49.3,0,0,1,8.964-.414l10.192.461a1.2,1.2,0,0,0,1.248-1.14c0-.018,0-.037,0-.055,0-.245-.012-.488-.029-.729l1.48-.78,14.765-7.965a6,6,0,0,1,7.329,1.281L72.129,321.174a20.7,20.7,0,0,1-12.709,1.769l-17.922-3.3a7.849,7.849,0,0,0-5.732.779L17.809,330.686a1.2,1.2,0,1,0,1.176,2.081l.01-.006L36.942,322.5a5.466,5.466,0,0,1,4.012-.532q.037.01.075.016l17.962,3.308a23.106,23.106,0,0,0,14.274-2.015,1.188,1.188,0,0,0,.146-.086l31.068-21.332a1.2,1.2,0,0,0,.348-1.6A8.383,8.383,0,0,0,93.647,297.2Zm-20.192-.088.028-.016a6.958,6.958,0,0,1,7.289.2l-6.288,3.388a10.032,10.032,0,0,0-4.236-1.827Zm5.438,8.048-.841.444a10.07,10.07,0,0,0-1.751-3.184l9.237-4.977a4.723,4.723,0,0,1,5.32,1.262Z" transform="translate(0 -218.016)"/></g>
</symbol>
<!-- bottom curve gray for background -->

<symbol id="bottom-curve" viewBox="0 0 1920 64"  xml:space="preserve">
<path class="st0" d="M1480.7,17.7c-81.6-5.5-166.5-9.7-252.3-12.5c-87.9-2.9-178.2-4.3-268.4-4.3S779.5,2.4,691.6,5.3
	c-85.9,2.8-170.8,7-252.3,12.5c-80.1,5.4-158.2,12-232,19.8C134.3,45.3,64.6,54.2,0.1,64h1919.8c-64.5-9.8-134.2-18.7-207.2-26.4
	C1638.9,29.8,1560.9,23.1,1480.7,17.7z"/>
<g></g><g></g><g></g><g></g><g></g><g></g><g></g><g></g><g></g><g></g><g></g><g></g><g></g><g></g><g></g></symbol>

<symbol id="vertel_icon_sdWan" viewBox="0 0 70.004 70.004"><defs></defs><path class="a" d="M49.1,30.6a7.221,7.221,0,0,0-1-4.7,7.039,7.039,0,0,0-6-3.3,5.867,5.867,0,0,0-2.3.4,7.051,7.051,0,0,0-13.6,1.3h-.1a6.161,6.161,0,0,0-5.8,8.1,7.607,7.607,0,0,0-2.8,1.5,6.071,6.071,0,0,0-2,4.5,6.231,6.231,0,0,0,6.2,6.2H48.4a7.018,7.018,0,0,0,.7-14Zm-.7,11.5H21.7a3.585,3.585,0,0,1-3.6-3.6,3.63,3.63,0,0,1,3.5-3.6c.4,0,2.4.5,2.1-1.4a1.141,1.141,0,0,0-.3-.6,3.337,3.337,0,0,1-.6-3.8A3.606,3.606,0,0,1,26,26.9a4.484,4.484,0,0,1,1.1.1,1.261,1.261,0,0,0,1.6-1.4,4.456,4.456,0,0,1,4.4-4.8A4.4,4.4,0,0,1,37.5,25a1.246,1.246,0,0,0,2,.9,4.464,4.464,0,0,1,6.6,5.5,2.768,2.768,0,0,0-.1.9c.3,1.4,1.9.9,2.4.9a4.45,4.45,0,0,1,0,8.9Z"/><path class="a" d="M56.3,13.3a1.985,1.985,0,0,1-3-2.6,1.985,1.985,0,0,1,3,2.6Zm-4.6-4a4.069,4.069,0,0,0-.3,4.9l-2.5,2.9a1.063,1.063,0,1,0,1.6,1.4L53,15.6a4.045,4.045,0,0,0,4.4-6.7A4.19,4.19,0,0,0,51.7,9.3Z"/><path class="a" d="M66,35.2a2,2,0,1,1,1.9-2.1A2.005,2.005,0,0,1,66,35.2Zm-.3-6A3.956,3.956,0,0,0,62,32.4l-3.8.2a1.051,1.051,0,1,0,.1,2.1l3.8-.2A4.052,4.052,0,0,0,70,33,4.173,4.173,0,0,0,65.7,29.2Z"/><path class="a" d="M56.2,56.8a1.981,1.981,0,1,1,2.8-.1A2.128,2.128,0,0,1,56.2,56.8Zm4.1-4.5a3.933,3.933,0,0,0-4.9-.4l-2.8-2.6a1.063,1.063,0,0,0-1.4,1.6L54,53.5a4.145,4.145,0,0,0,.9,4.9,3.988,3.988,0,0,0,5.7-.3A4.2,4.2,0,0,0,60.3,52.3Z"/><path class="a" d="M34.2,66a2,2,0,1,1,2.1,1.9A2.005,2.005,0,0,1,34.2,66Zm6.1-.2A4.054,4.054,0,0,0,37.1,62l-.2-3.8a1.051,1.051,0,1,0-2.1.1l.2,3.8a4.2,4.2,0,0,0-2.9,4,4.1,4.1,0,0,0,8.2-.3Z"/><path class="a" d="M12.8,55.8a1.981,1.981,0,1,1,.1,2.8A2.023,2.023,0,0,1,12.8,55.8Zm4.4,4.1a4.089,4.089,0,0,0,.5-4.9l2.6-2.8a1.061,1.061,0,0,0-1.5-1.5l-2.6,2.8a4.049,4.049,0,1,0,1,6.4Z"/><path class="a" d="M4,33.6a1.951,1.951,0,0,1,.1,3.9,1.923,1.923,0,0,1-2-1.9A2.054,2.054,0,0,1,4,33.6Zm.1,6.1A4.17,4.17,0,0,0,8,36.6l3.8-.1a1.051,1.051,0,1,0-.1-2.1L8,34.5a4,4,0,0,0-4-2.9,4.05,4.05,0,0,0,.1,8.1Z"/><path class="a" d="M14.7,12.4a1.98,1.98,0,0,1-2.8,2.8,1.98,1.98,0,0,1,2.8-2.8Zm-4.2,4.3a4.093,4.093,0,0,0,4.9.6L18.1,20a1.061,1.061,0,0,0,1.5-1.5l-2.7-2.7a3.956,3.956,0,0,0-.7-4.9,4.066,4.066,0,1,0-5.7,5.8Z"/><path class="a" d="M37,4.1a2,2,0,1,1-2-2A2.006,2.006,0,0,1,37,4.1Zm-6.1,0a3.99,3.99,0,0,0,3,3.9v3.8a1,1,0,0,0,1,1,1.075,1.075,0,0,0,1-1V8a4.079,4.079,0,0,0,3-3.9A3.834,3.834,0,0,0,35,0,4.118,4.118,0,0,0,30.9,4.1Z"/></symbol>

<symbol id="vertel_icon_network" viewBox="0 0 61.9 70.1"><defs></defs><path class="a" d="M34.7,70a5.257,5.257,0,0,1-4.2-2.1,5.533,5.533,0,0,1-.9-4.7.517.517,0,0,0-.3-.7L21.5,58l-7.9-4.5a.367.367,0,0,0-.3-.1.52.52,0,0,0-.4.2,5.464,5.464,0,0,1-3.8,1.6A5.335,5.335,0,0,1,7.8,44.7a.634.634,0,0,0,.5-.6V25.9a.634.634,0,0,0-.5-.6,5.261,5.261,0,0,1-4-5.2,5.3,5.3,0,0,1,9.1-3.7.758.758,0,0,0,.4.2.367.367,0,0,0,.3-.1c.1-.1,15.7-9.1,15.8-9.1a.61.61,0,0,0,.3-.7A5.335,5.335,0,0,1,30.6,2,5.4,5.4,0,0,1,34.8-.1,5.838,5.838,0,0,1,39,2.1a5.533,5.533,0,0,1,.9,4.7.517.517,0,0,0,.3.7c.1.1,15.6,9,15.7,9.1a.367.367,0,0,0,.3.1.52.52,0,0,0,.4-.2,5.464,5.464,0,0,1,3.8-1.6,5.335,5.335,0,0,1,5.3,5.3,5.46,5.46,0,0,1-4,5.2.634.634,0,0,0-.5.6V44.2a.634.634,0,0,0,.5.6,5.261,5.261,0,0,1,4,5.2,5.335,5.335,0,0,1-5.3,5.3,5.464,5.464,0,0,1-3.8-1.6.758.758,0,0,0-.4-.2.367.367,0,0,0-.3.1L40.2,62.7a.779.779,0,0,0-.3.7,5.335,5.335,0,0,1-.9,4.7A5.951,5.951,0,0,1,34.7,70Zm0-8.9a3.5,3.5,0,0,0-2.2.8.1.1,0,0,0-.1.1.1.1,0,0,0-.1.1,3.6,3.6,0,1,0,4.8,0L37,62a.1.1,0,0,1-.1-.1A3.008,3.008,0,0,0,34.7,61.1ZM47.9,43.4h-.2c-.2,0-.3.2-.4.3L39,59.9a.616.616,0,0,0,.1.7.758.758,0,0,0,.4.2.367.367,0,0,0,.3-.1S54.8,52,54.9,52a.61.61,0,0,0,.3-.7,4.992,4.992,0,0,1,.1-3.2.517.517,0,0,0-.3-.7l-6.9-3.9C48.1,43.4,48,43.4,47.9,43.4ZM21.3,43a.367.367,0,0,0-.3.1l-7,3.6a.67.67,0,0,0-.3.8,5.544,5.544,0,0,1,.4,3.8.517.517,0,0,0,.3.7l7.9,4.5,7.2,4.2a.367.367,0,0,0,.3.1.52.52,0,0,0,.4-.2.616.616,0,0,0,.1-.7s-.2-.5-8.5-16.6c-.1-.1-.2-.3-.4-.3Zm9-4.7a.367.367,0,0,0-.3.1l-6.4,3.3a.67.67,0,0,0-.3.8L32,59.4a.55.55,0,0,0,.5.3h.2a1.421,1.421,0,0,1,.6-.2.634.634,0,0,0,.5-.6V40.7a.634.634,0,0,0-.5-.6,5.74,5.74,0,0,1-2.7-1.6C30.6,38.4,30.5,38.3,30.3,38.3Zm8.8.2a.52.52,0,0,0-.4.2,5.261,5.261,0,0,1-2.6,1.5.634.634,0,0,0-.5.6V59a.634.634,0,0,0,.5.6c.2.1.4.1.6.2h.2a.55.55,0,0,0,.5-.3l8.5-16.6a.6.6,0,0,0-.2-.8l-6.3-3.5A.367.367,0,0,0,39.1,38.5Zm21.3,7.7a3.388,3.388,0,0,0-2.9,1.5,3.338,3.338,0,0,0-.5,3.2,3.755,3.755,0,0,0,3.5,2.6,3.585,3.585,0,0,0,3.6-3.6A3.63,3.63,0,0,0,60.4,46.2ZM9,46.2a3.6,3.6,0,1,0,0,7.2,3.7,3.7,0,0,0,3.2-1.9,3.628,3.628,0,0,0,0-3.5,3.513,3.513,0,0,0-2.9-1.9C9.3,46.2,9.1,46.2,9,46.2ZM57.5,24.7h-.2c-.2,0-.3.2-.4.3L48.7,41.1a.6.6,0,0,0,.2.8l7.2,4a.367.367,0,0,0,.3.1.758.758,0,0,0,.4-.2,4.637,4.637,0,0,1,2.3-1.2.634.634,0,0,0,.5-.6V25.9a.634.634,0,0,0-.5-.6,5.023,5.023,0,0,1-1.3-.5A.367.367,0,0,0,57.5,24.7ZM12,24.7a.367.367,0,0,0-.3.1,6.943,6.943,0,0,1-1.3.5.634.634,0,0,0-.5.6V44.1a.634.634,0,0,0,.5.6,5.306,5.306,0,0,1,1.7.8.5.5,0,0,0,.6,0l7.6-4a.67.67,0,0,0,.3-.8L12.6,25c-.1-.1-.2-.3-.4-.3Zm41.6,1.2a.367.367,0,0,0-.3.1L40.2,33a.61.61,0,0,0-.3.7,6.15,6.15,0,0,1,0,2.7.517.517,0,0,0,.3.7l6.2,3.5a.367.367,0,0,0,.3.1h.2c.2,0,.3-.2.4-.3l6.9-13.5a.616.616,0,0,0-.1-.7C53.9,26,53.8,25.9,53.6,25.9ZM14.2,22.5h-.1c-.2,0-.3.1-.4.3h0a.878.878,0,0,0-.1.7L22,39.9c.1.1.2.3.4.3h.2a.367.367,0,0,0,.3-.1l6.4-3.3a.61.61,0,0,0,.3-.7,5.145,5.145,0,0,1,.2-3,.574.574,0,0,0-.2-.7L14.7,22.5Zm20.5,8.8a3.585,3.585,0,0,0-3.6,3.6,3.671,3.671,0,0,0,3.6,3.7,3.608,3.608,0,0,0,3.6-3.7A3.522,3.522,0,0,0,34.7,31.3Zm1.5-9.6a.645.645,0,0,0-.6.6v7a.634.634,0,0,0,.5.6,5.438,5.438,0,0,1,2.6,1.6.764.764,0,0,0,.5.2.367.367,0,0,0,.3-.1L55.3,23a.63.63,0,0,0,.3-.8l-.1-.2a.675.675,0,0,0-.6-.4H36.2Zm-17.9,0a.675.675,0,0,0-.6.4.618.618,0,0,0,.2.7l12.5,8.3a.367.367,0,0,0,.3.1.758.758,0,0,0,.4-.2,4.637,4.637,0,0,1,2.3-1.2.634.634,0,0,0,.5-.6v-7a.645.645,0,0,0-.6-.6h-15Zm42.1-5.2a3.571,3.571,0,0,0-2.7,1.2,3.658,3.658,0,0,0-.9,2.8v.2a1.087,1.087,0,0,0,.1.5,3.664,3.664,0,0,0,3.5,2.5A3.585,3.585,0,0,0,64,20.1,3.524,3.524,0,0,0,60.4,16.5ZM9,16.5a3.585,3.585,0,0,0-3.6,3.6A3.671,3.671,0,0,0,9,23.8h.4a3.616,3.616,0,0,0,3.2-3.2,3.887,3.887,0,0,0-.9-2.9A3.605,3.605,0,0,0,9,16.5ZM39,8.8a.52.52,0,0,0-.4.2,6.437,6.437,0,0,1-2.5,1.5.634.634,0,0,0-.5.6v8.3a.645.645,0,0,0,.6.6H54.6a.56.56,0,0,0,.6-.5,1.884,1.884,0,0,1,.2-.8.517.517,0,0,0-.3-.7L39.4,8.9C39.2,8.9,39.1,8.8,39,8.8Zm-8.5,0a.367.367,0,0,0-.3.1L14.4,18a.61.61,0,0,0-.3.7c.1.4.1.7.2.7a.645.645,0,0,0,.6.6H33.3a.645.645,0,0,0,.6-.6V11.1a.634.634,0,0,0-.5-.6A5.427,5.427,0,0,1,30.9,9,.758.758,0,0,0,30.5,8.8Zm4.2-7.1a3.585,3.585,0,0,0-3.6,3.6,3.75,3.75,0,0,0,2.8,3.6c.3,0,.6.1.9.1a3.585,3.585,0,0,0,3.6-3.6A3.691,3.691,0,0,0,34.7,1.7Z" transform="translate(-3.8 0.1)"/></symbol>

<symbol id="vertel_icon_mobility" viewBox="0 0 68.95 68.95"><defs></defs><g transform="translate(-0.225 -0.225)"><path class="a" d="M67.9,21,48.4,1.5a4.529,4.529,0,0,0-6.3,0L1.5,42.2a4.529,4.529,0,0,0,0,6.3L21,67.9h0a4.529,4.529,0,0,0,6.3,0L67.9,27.3A4.528,4.528,0,0,0,67.9,21ZM26.1,66.7a2.716,2.716,0,0,1-3.9,0L2.7,47.3a2.716,2.716,0,0,1,0-3.9L8,38,31.4,61.4Zm6.5-6.4L9.2,36.9,40,6,63.4,29.4Zm32-32L41.1,4.9l2.2-2.2a2.716,2.716,0,0,1,3.9,0L66.7,22.2a2.716,2.716,0,0,1,0,3.9l-2.1,2.2Z"/><path class="a" d="M18.4,51.1a3.394,3.394,0,1,0,0,4.8A3.441,3.441,0,0,0,18.4,51.1Zm-3.7,3.6a1.768,1.768,0,1,1,2.5,0A1.751,1.751,0,0,1,14.7,54.7Z"/></g></symbol>

<symbol id="vertel_icon_cloud" viewBox="0 0 70 46.7"><defs></defs><path class="a" d="M59.5,29.1A19.991,19.991,0,0,0,39.8,10.2a20.6,20.6,0,0,0-16.3,8.2c-.1,0-.2-.1-.3-.1a1.493,1.493,0,0,0-.7-.3.6.6,0,0,0-.4-.1,1.854,1.854,0,0,0-.7-.2c-.1,0-.3-.1-.4-.1a2.2,2.2,0,0,0-.8-.1.756.756,0,0,1-.4-.1c-.4,0-.8-.1-1.2-.1A10.5,10.5,0,0,0,8.1,27.8v.4h0A15.982,15.982,0,0,0,0,41.9a14.98,14.98,0,0,0,15,15H56a14.041,14.041,0,0,0,14-14A14.4,14.4,0,0,0,59.5,29.1ZM56,54.5H15A12.718,12.718,0,0,1,2.3,41.8a14.1,14.1,0,0,1,7.5-12l.7-.3V27.6a8.237,8.237,0,0,1,8.2-8.2,4.1,4.1,0,0,1,1.1.1h.3c.3.1.6.1.9.2h.1a4.179,4.179,0,0,1,1,.4.349.349,0,0,1,.2.1,2.177,2.177,0,0,1,.8.5,8.343,8.343,0,0,1,3.7,6.9A1.216,1.216,0,0,0,28,28.8a1.155,1.155,0,0,0,1.2-1.2,10.658,10.658,0,0,0-3.7-8,18.443,18.443,0,0,1,14.3-7.2A17.663,17.663,0,0,1,57.1,28.6a26.546,26.546,0,0,0-4.8.1,1.2,1.2,0,0,0-1,1.3,1.188,1.188,0,0,0,1.2,1h.2a22.6,22.6,0,0,1,5.5,0,11.9,11.9,0,0,1,9.5,11.6A11.759,11.759,0,0,1,56,54.5Z" transform="translate(0 -10.2)"/></symbol>

<symbol id="vertel_icon_tower_wifi" viewBox="0 0 58.405 70.052"><defs></defs><g transform="translate(-5.797)"><path class="a" d="M56.4,0,54.2,2.2a23.659,23.659,0,0,1,0,33.4l2.2,2.2a26.3,26.3,0,0,0,7.8-18.9A25.9,25.9,0,0,0,56.4,0Z"/><path class="a" d="M54.2,2.2Z"/><path class="a" d="M50.8,31.5a17.927,17.927,0,0,0,0-25.2L48.6,8.5a14.666,14.666,0,0,1,0,20.7Z"/><path class="a" d="M45.1,25.2a8.934,8.934,0,0,0,0-12.5l-2.2,2.2a5.8,5.8,0,0,1,0,8.1Z"/><path class="a" d="M15.8,2.2,13.6,0A26.3,26.3,0,0,0,5.8,18.9a26.713,26.713,0,0,0,7.8,18.9l2.2-2.2A23.659,23.659,0,0,1,15.8,2.2Z"/><path class="a" d="M15.8,2.2Z"/><path class="a" d="M19.2,31.5l2.2-2.2a14.666,14.666,0,0,1,0-20.7L19.2,6.4A17.805,17.805,0,0,0,19.2,31.5Z"/><path class="a" d="M27.1,23a5.8,5.8,0,0,1,0-8.1l-2.2-2.2a8.934,8.934,0,0,0,0,12.5Z"/><path class="a" d="M38.2,23.7A5.734,5.734,0,0,0,40.7,19a5.8,5.8,0,1,0-11.6,0,5.6,5.6,0,0,0,2.5,4.7L17.4,68.2h0a1.556,1.556,0,0,0,.9,1.8h0a1.556,1.556,0,0,0,1.8-.9l1.4-4.5,13.4-7,13.6,7.1,1.4,4.4h0a1.457,1.457,0,0,0,1.8.9h0a1.457,1.457,0,0,0,.9-1.8ZM26.4,49.4,35,44.3l8.6,5.1.3.9L35,54.9l-8.8-4.6Zm1.2-3.8,1.6-4.9,3.3,2Zm10-2.9,3.2-1.9,1.5,4.8ZM35,24.7h.6L40,38.2l-5,3-5-3,4.4-13.6A1.268,1.268,0,0,0,35,24.7ZM22.5,61.3l2.8-8.7,7,3.6Zm15-5.1,7.1-3.7,2.9,8.9Z"/></g></symbol>

<symbol id="vertel_icon_professional_services" viewBox="0 0 69.5 69.6"><defs></defs><path class="a" d="M59.6,19.9a3.2,3.2,0,1,1,3.2-3.2A3.159,3.159,0,0,1,59.6,19.9Zm0-4.5a1.3,1.3,0,1,0,1.3,1.3A1.26,1.26,0,0,0,59.6,15.4Z"/><path class="a" d="M57.8,26.7,57,24a.1.1,0,0,0-.1-.1l-.3-.1h-.2L53.9,25l-2.5-2.5L52.6,20v-.2l-.1-.3a.1.1,0,0,0-.1-.1l-2.6-.9V14.9l2.7-.9a.1.1,0,0,0,.1-.1l.1-.3v-.2L51.3,11l2.5-2.5,2.5,1.2h.2l.3-.1a.1.1,0,0,0,.1-.1l.9-2.6h3.6l.9,2.7a.1.1,0,0,0,.1.1l.3.1h.2l2.5-1.2,2.5,2.5-1.2,2.5v.2l.1.3a.1.1,0,0,0,.1.1c2.6.9,2.6.9,2.6,1.5v2.9l-2.7.9a.1.1,0,0,0-.1.1l-.1.3v.2l1.2,2.5L65.4,25l-2.5-1.3h-.2l-.3.1a.1.1,0,0,0-.1.1l-.9,2.6H57.8Zm-1.4-4.8a2.92,2.92,0,0,1,.9.2l.1.1a2.1,2.1,0,0,1,1.3,1.3l.4,1.2c0,.1.1.1.2.1H60a.349.349,0,0,0,.2-.1l.4-1.2a2.19,2.19,0,0,1,1.2-1.3l.2-.1a2.125,2.125,0,0,1,1.8,0l1.2.6h.1c.1,0,.1,0,.1-.1l.4-.4c.1-.1.1-.2,0-.2L65,20.8A1.91,1.91,0,0,1,65,19l.1-.1a2.1,2.1,0,0,1,1.3-1.3l1.2-.4c.1,0,.1-.1.1-.2v-.6a.349.349,0,0,0-.1-.2l-1.2-.4a2.19,2.19,0,0,1-1.3-1.2l-.1-.2a2.254,2.254,0,0,1,0-1.8l.6-1.2v-.2l-.4-.4-.1-.1H65l-1.2.6a2.125,2.125,0,0,1-1.8,0l-.1-.1a2.1,2.1,0,0,1-1.3-1.3l-.4-1.2c0-.1-.1-.1-.2-.1h-.6a.349.349,0,0,0-.2.1L58.7,10a2.19,2.19,0,0,1-1.2,1.3l-.2.1a2.125,2.125,0,0,1-1.8,0l-1.2-.6h-.1c-.1,0-.1,0-.1.1l-.4.4c-.1.1-.1.2,0,.2l.6,1.2a1.91,1.91,0,0,1,0,1.8l-.1.1a2.1,2.1,0,0,1-1.3,1.3l-1.2.4c-.1,0-.1.1-.1.2v.6a.349.349,0,0,0,.1.2l1.2.4a2.19,2.19,0,0,1,1.3,1.2l.1.2a2.254,2.254,0,0,1,0,1.8L53.7,22v.2l.4.4.1.1h.1l1.2-.6A2.92,2.92,0,0,1,56.4,21.9Z"/><rect class="a" width="1.9" height="1.9" transform="translate(29.4 4.5)"/><rect class="a" width="1.9" height="1.9" transform="translate(33.9 4.5)"/><rect class="a" width="1.9" height="1.9" transform="translate(38.4 4.5)"/><path class="a" d="M31.7,15.4a2.263,2.263,0,0,1-2.3-2.3v-2a.215.215,0,0,0-.2-.2H26.9a2.112,2.112,0,0,1-2.1-2.1V2.1A2.112,2.112,0,0,1,26.9,0H42.7a2.112,2.112,0,0,1,2.1,2.1V8.9A2.112,2.112,0,0,1,42.7,11H35.5c-.1,0-.1,0-.2.1l-1.6,3.1A2.161,2.161,0,0,1,31.7,15.4Zm-.5-2.3c0,.3.3.4.5.4a.52.52,0,0,0,.4-.2L34.2,9h8.5c.1,0,.1,0,.1-.1l.1-.1V2a.215.215,0,0,0-.2-.2H26.9a.215.215,0,0,0-.2.2V8.8a.215.215,0,0,0,.2.2h4.3Z"/><path class="a" d="M7.7,26.7a3.159,3.159,0,0,1-3.2-3.2V21.4a13.706,13.706,0,0,0-2.8-5.5A7.4,7.4,0,0,1,0,11.1,7.673,7.673,0,0,1,2.6,5.3,7.844,7.844,0,0,1,7.7,3.4a2.769,2.769,0,0,1,.9.1,7.748,7.748,0,0,1,6.7,6.4A7.816,7.816,0,0,1,13.7,16,12.68,12.68,0,0,0,11,21.1l-.1.3v2.2A3.138,3.138,0,0,1,7.7,26.7ZM6.6,22.2a.215.215,0,0,0-.2.2v1.1a1.3,1.3,0,1,0,2.6,0V22.4a.215.215,0,0,0-.2-.2H6.6Zm1.1-17A5.785,5.785,0,0,0,3.8,6.7a6.059,6.059,0,0,0-2,4.4,6.162,6.162,0,0,0,1.3,3.7A16.649,16.649,0,0,1,6,20.2c0,.1.1.1.2.1H9a.349.349,0,0,0,.2-.1,14.666,14.666,0,0,1,3-5.4,5.448,5.448,0,0,0,1.2-4.6,5.633,5.633,0,0,0-5-4.9C8.2,5.3,7.9,5.2,7.7,5.2Z"/><path class="a" d="M14.7,69.6v-11a11.325,11.325,0,0,1,.6-3.6,10.989,10.989,0,0,1,1-2.2,11.234,11.234,0,0,1,3.6-3.9c.1,0,.1-.1.2-.1l.1-.1a10.791,10.791,0,0,1,4.4-1.6l4.8-.7c.1,0,.1-.1.2-.1l.7-2.6c0-.1,0-.2-.1-.2a9.109,9.109,0,0,1-3.9-5.3A5.5,5.5,0,0,1,26,36V31.5c0-.1,0-.1-.1-.1l-.1-.1h0c-.6,0-2-.1-2-1.4V28a10.029,10.029,0,0,1,10-10h2.3a10.029,10.029,0,0,1,10,10v1.8c0,1.2-.8,1.5-1.6,1.5h-.6a.349.349,0,0,0-.1.2V36a9.6,9.6,0,0,1-.3,2.2,8.713,8.713,0,0,1-3.9,5.3c-.1,0-.1.1-.1.2l.7,2.6c0,.1.1.1.2.1l4.8.7a10.548,10.548,0,0,1,2.4.6,7.835,7.835,0,0,1,2,1l.2.1c.1,0,.1.1.2.1a11.234,11.234,0,0,1,3.6,3.9s.7,1.4,1,2.2a11.325,11.325,0,0,1,.6,3.6v11H14.7ZM24.9,48.9a9.579,9.579,0,0,0-8.3,9.6v9a.215.215,0,0,0,.2.2H52.9a.215.215,0,0,0,.2-.2v-9a9.579,9.579,0,0,0-8.3-9.6l-5.1-.7h-.1l-2.8,2.1L35,51.8l-2-1.5-2.8-2.1h-.1C30,48.2,24.9,48.9,24.9,48.9Zm7.2-4.5h0c-.1.1-.2.1-.2.2l-.6,2.2c0,.1,0,.2.1.2l3.2,2.4h.2L38,47c.1,0,.1-.1.1-.2l-.6-2.2c0-.1,0-.1-.1-.1h-.2a7.457,7.457,0,0,1-2.6.4,11.083,11.083,0,0,1-2.5-.5ZM28,31.2a.215.215,0,0,0-.2.2v4.5a7,7,0,0,0,14,0V31.3a.215.215,0,0,0-.2-.2,8.117,8.117,0,0,1-4.5-2.5l-.1-.1h0c-.1,0-.1,0-.1.1a8.72,8.72,0,0,1-6.1,2.6Zm10.2-4.3a5.419,5.419,0,0,0,4.5,2.4h1.1a.215.215,0,0,0,.2-.2V28a8.066,8.066,0,0,0-8.1-8.1H33.6A8.066,8.066,0,0,0,25.5,28v1.1a.215.215,0,0,0,.2.2h5a6.8,6.8,0,0,0,5.6-3l.8-1.2Z"/></symbol>

<symbol  id="icon_map" viewBox="0 0 12 16"><defs><style>.a{fill:#667179;}</style></defs><g transform="translate(-1118.973 3356.435)"><path class="a" d="M1122.8-3343.12c-.142-.182-.271-.348-.4-.515a39.262,39.262,0,0,1-2.358-3.2,6.476,6.476,0,0,1-.968-4.679,5.983,5.983,0,0,1,6.878-4.829,5.845,5.845,0,0,1,4.806,4.362,10.438,10.438,0,0,1,.215,1.14v.92c-.041.255-.074.511-.123.764a7.039,7.039,0,0,1-1.242,2.763c-.751,1.046-1.545,2.062-2.32,3.09-.044.058-.087.117-.141.191l-.6.778c-.413.552-.82,1.108-1.227,1.663-.23.314-.47.313-.7,0-.406-.557-.816-1.111-1.22-1.668Zm2.172,1.713c.036-.045.058-.072.079-.1.835-1.1,1.68-2.185,2.5-3.291.621-.835,1.252-1.668,1.81-2.546a5.555,5.555,0,0,0,.838-3.9,5.309,5.309,0,0,0-6.852-4.22,5.357,5.357,0,0,0-3.377,6.874,9.053,9.053,0,0,0,1.411,2.476c.877,1.161,1.774,2.305,2.659,3.46C1124.354-3342.251,1124.653-3341.836,1124.972-3341.407Z" transform="translate(0 0)"/><path class="a" d="M1223.612-3254.029a2.481,2.481,0,0,1-2.465,2.483,2.481,2.481,0,0,1-2.484-2.481,2.48,2.48,0,0,1,2.473-2.473A2.48,2.48,0,0,1,1223.612-3254.029Zm-.707.015a1.774,1.774,0,0,0-1.754-1.778,1.774,1.774,0,0,0-1.781,1.751,1.774,1.774,0,0,0,1.762,1.787A1.774,1.774,0,0,0,1222.9-3254.014Z" transform="translate(-96.165 -96.391)"/><path class="a" d="M1322.174-3304.966c0,.069,0,.122,0,.175a.359.359,0,0,1-.345.356.354.354,0,0,1-.358-.359,3.906,3.906,0,0,0-.237-1.351,3.844,3.844,0,0,0-2.282-2.316c-.213-.084-.316-.213-.3-.385a.361.361,0,0,1,.527-.286,4.537,4.537,0,0,1,2.389,2.027A4.557,4.557,0,0,1,1322.174-3304.966Z" transform="translate(-192.616 -45.594)"/><path class="a" d="M1280.17-3316a.359.359,0,0,1-.362.352.352.352,0,0,1-.341-.353.352.352,0,0,1,.359-.352A.359.359,0,0,1,1280.17-3316Z" transform="translate(-154.812 -38.663)"/></g></symbol>


<symbol id="icon_call" viewBox="0 0 512 512"><path fill="currentColor" d="M497.39 361.8l-112-48a24 24 0 0 0-28 6.9l-49.6 60.6A370.66 370.66 0 0 1 130.6 204.11l60.6-49.6a23.94 23.94 0 0 0 6.9-28l-48-112A24.16 24.16 0 0 0 122.6.61l-104 24A24 24 0 0 0 0 48c0 256.5 207.9 464 464 464a24 24 0 0 0 23.4-18.6l24-104a24.29 24.29 0 0 0-14.01-27.6z"></path></symbol>

<symbol id="magnifying_icon" viewBox="0 0 118.783 118.783" style="enable-background:new 0 0 118.783 118.783;" xml:space="preserve">
<g>
	<path d="M115.97,101.597L88.661,74.286c4.64-7.387,7.333-16.118,7.333-25.488c0-26.509-21.49-47.996-47.998-47.996
		S0,22.289,0,48.798c0,26.51,21.487,47.995,47.996,47.995c10.197,0,19.642-3.188,27.414-8.605l26.984,26.986
		c1.875,1.873,4.333,2.806,6.788,2.806c2.458,0,4.913-0.933,6.791-2.806C119.72,111.423,119.72,105.347,115.97,101.597z
		 M47.996,81.243c-17.917,0-32.443-14.525-32.443-32.443s14.526-32.444,32.443-32.444c17.918,0,32.443,14.526,32.443,32.444
		S65.914,81.243,47.996,81.243z"/>
</g><g></g><g></g><g></g><g></g><g></g><g></g><g></g><g></g><g></g><g></g><g></g><g></g><g></g><g></g><g></g></symbol>


<!-- bottom curve gray for background end -->
</defs>
</svg>