<svg xmlns="http://www.w3.org/2000/svg" width="70" height="46.7" viewBox="0 0 70 46.7"><defs><style>.a{fill:#80e315;}</style></defs><path class="a" d="M59.5,29.1A19.991,19.991,0,0,0,39.8,10.2a20.6,20.6,0,0,0-16.3,8.2c-.1,0-.2-.1-.3-.1a1.493,1.493,0,0,0-.7-.3.6.6,0,0,0-.4-.1,1.854,1.854,0,0,0-.7-.2c-.1,0-.3-.1-.4-.1a2.2,2.2,0,0,0-.8-.1.756.756,0,0,1-.4-.1c-.4,0-.8-.1-1.2-.1A10.5,10.5,0,0,0,8.1,27.8v.4h0A15.982,15.982,0,0,0,0,41.9a14.98,14.98,0,0,0,15,15H56a14.041,14.041,0,0,0,14-14A14.4,14.4,0,0,0,59.5,29.1ZM56,54.5H15A12.718,12.718,0,0,1,2.3,41.8a14.1,14.1,0,0,1,7.5-12l.7-.3V27.6a8.237,8.237,0,0,1,8.2-8.2,4.1,4.1,0,0,1,1.1.1h.3c.3.1.6.1.9.2h.1a4.179,4.179,0,0,1,1,.4.349.349,0,0,1,.2.1,2.177,2.177,0,0,1,.8.5,8.343,8.343,0,0,1,3.7,6.9A1.216,1.216,0,0,0,28,28.8a1.155,1.155,0,0,0,1.2-1.2,10.658,10.658,0,0,0-3.7-8,18.443,18.443,0,0,1,14.3-7.2A17.663,17.663,0,0,1,57.1,28.6a26.546,26.546,0,0,0-4.8.1,1.2,1.2,0,0,0-1,1.3,1.188,1.188,0,0,0,1.2,1h.2a22.6,22.6,0,0,1,5.5,0,11.9,11.9,0,0,1,9.5,11.6A11.759,11.759,0,0,1,56,54.5Z" transform="translate(0 -10.2)"/></svg>