<svg xmlns="http://www.w3.org/2000/svg" width="58.405" height="70.052" viewBox="0 0 58.405 70.052"><defs><style>.a{fill:#80e315;}</style></defs><g transform="translate(-5.797)"><path class="a" d="M56.4,0,54.2,2.2a23.659,23.659,0,0,1,0,33.4l2.2,2.2a26.3,26.3,0,0,0,7.8-18.9A25.9,25.9,0,0,0,56.4,0Z"/><path class="a" d="M54.2,2.2Z"/><path class="a" d="M50.8,31.5a17.927,17.927,0,0,0,0-25.2L48.6,8.5a14.666,14.666,0,0,1,0,20.7Z"/><path class="a" d="M45.1,25.2a8.934,8.934,0,0,0,0-12.5l-2.2,2.2a5.8,5.8,0,0,1,0,8.1Z"/><path class="a" d="M15.8,2.2,13.6,0A26.3,26.3,0,0,0,5.8,18.9a26.713,26.713,0,0,0,7.8,18.9l2.2-2.2A23.659,23.659,0,0,1,15.8,2.2Z"/><path class="a" d="M15.8,2.2Z"/><path class="a" d="M19.2,31.5l2.2-2.2a14.666,14.666,0,0,1,0-20.7L19.2,6.4A17.805,17.805,0,0,0,19.2,31.5Z"/><path class="a" d="M27.1,23a5.8,5.8,0,0,1,0-8.1l-2.2-2.2a8.934,8.934,0,0,0,0,12.5Z"/><path class="a" d="M38.2,23.7A5.734,5.734,0,0,0,40.7,19a5.8,5.8,0,1,0-11.6,0,5.6,5.6,0,0,0,2.5,4.7L17.4,68.2h0a1.556,1.556,0,0,0,.9,1.8h0a1.556,1.556,0,0,0,1.8-.9l1.4-4.5,13.4-7,13.6,7.1,1.4,4.4h0a1.457,1.457,0,0,0,1.8.9h0a1.457,1.457,0,0,0,.9-1.8ZM26.4,49.4,35,44.3l8.6,5.1.3.9L35,54.9l-8.8-4.6Zm1.2-3.8,1.6-4.9,3.3,2Zm10-2.9,3.2-1.9,1.5,4.8ZM35,24.7h.6L40,38.2l-5,3-5-3,4.4-13.6A1.268,1.268,0,0,0,35,24.7ZM22.5,61.3l2.8-8.7,7,3.6Zm15-5.1,7.1-3.7,2.9,8.9Z"/></g></svg>