<svg xmlns="http://www.w3.org/2000/svg" width="69.5" height="69.6" viewBox="0 0 69.5 69.6"><defs><style>.a{fill:#80e315;}</style></defs><path class="a" d="M59.6,19.9a3.2,3.2,0,1,1,3.2-3.2A3.159,3.159,0,0,1,59.6,19.9Zm0-4.5a1.3,1.3,0,1,0,1.3,1.3A1.26,1.26,0,0,0,59.6,15.4Z"/><path class="a" d="M57.8,26.7,57,24a.1.1,0,0,0-.1-.1l-.3-.1h-.2L53.9,25l-2.5-2.5L52.6,20v-.2l-.1-.3a.1.1,0,0,0-.1-.1l-2.6-.9V14.9l2.7-.9a.1.1,0,0,0,.1-.1l.1-.3v-.2L51.3,11l2.5-2.5,2.5,1.2h.2l.3-.1a.1.1,0,0,0,.1-.1l.9-2.6h3.6l.9,2.7a.1.1,0,0,0,.1.1l.3.1h.2l2.5-1.2,2.5,2.5-1.2,2.5v.2l.1.3a.1.1,0,0,0,.1.1c2.6.9,2.6.9,2.6,1.5v2.9l-2.7.9a.1.1,0,0,0-.1.1l-.1.3v.2l1.2,2.5L65.4,25l-2.5-1.3h-.2l-.3.1a.1.1,0,0,0-.1.1l-.9,2.6H57.8Zm-1.4-4.8a2.92,2.92,0,0,1,.9.2l.1.1a2.1,2.1,0,0,1,1.3,1.3l.4,1.2c0,.1.1.1.2.1H60a.349.349,0,0,0,.2-.1l.4-1.2a2.19,2.19,0,0,1,1.2-1.3l.2-.1a2.125,2.125,0,0,1,1.8,0l1.2.6h.1c.1,0,.1,0,.1-.1l.4-.4c.1-.1.1-.2,0-.2L65,20.8A1.91,1.91,0,0,1,65,19l.1-.1a2.1,2.1,0,0,1,1.3-1.3l1.2-.4c.1,0,.1-.1.1-.2v-.6a.349.349,0,0,0-.1-.2l-1.2-.4a2.19,2.19,0,0,1-1.3-1.2l-.1-.2a2.254,2.254,0,0,1,0-1.8l.6-1.2v-.2l-.4-.4-.1-.1H65l-1.2.6a2.125,2.125,0,0,1-1.8,0l-.1-.1a2.1,2.1,0,0,1-1.3-1.3l-.4-1.2c0-.1-.1-.1-.2-.1h-.6a.349.349,0,0,0-.2.1L58.7,10a2.19,2.19,0,0,1-1.2,1.3l-.2.1a2.125,2.125,0,0,1-1.8,0l-1.2-.6h-.1c-.1,0-.1,0-.1.1l-.4.4c-.1.1-.1.2,0,.2l.6,1.2a1.91,1.91,0,0,1,0,1.8l-.1.1a2.1,2.1,0,0,1-1.3,1.3l-1.2.4c-.1,0-.1.1-.1.2v.6a.349.349,0,0,0,.1.2l1.2.4a2.19,2.19,0,0,1,1.3,1.2l.1.2a2.254,2.254,0,0,1,0,1.8L53.7,22v.2l.4.4.1.1h.1l1.2-.6A2.92,2.92,0,0,1,56.4,21.9Z"/><rect class="a" width="1.9" height="1.9" transform="translate(29.4 4.5)"/><rect class="a" width="1.9" height="1.9" transform="translate(33.9 4.5)"/><rect class="a" width="1.9" height="1.9" transform="translate(38.4 4.5)"/><path class="a" d="M31.7,15.4a2.263,2.263,0,0,1-2.3-2.3v-2a.215.215,0,0,0-.2-.2H26.9a2.112,2.112,0,0,1-2.1-2.1V2.1A2.112,2.112,0,0,1,26.9,0H42.7a2.112,2.112,0,0,1,2.1,2.1V8.9A2.112,2.112,0,0,1,42.7,11H35.5c-.1,0-.1,0-.2.1l-1.6,3.1A2.161,2.161,0,0,1,31.7,15.4Zm-.5-2.3c0,.3.3.4.5.4a.52.52,0,0,0,.4-.2L34.2,9h8.5c.1,0,.1,0,.1-.1l.1-.1V2a.215.215,0,0,0-.2-.2H26.9a.215.215,0,0,0-.2.2V8.8a.215.215,0,0,0,.2.2h4.3Z"/><path class="a" d="M7.7,26.7a3.159,3.159,0,0,1-3.2-3.2V21.4a13.706,13.706,0,0,0-2.8-5.5A7.4,7.4,0,0,1,0,11.1,7.673,7.673,0,0,1,2.6,5.3,7.844,7.844,0,0,1,7.7,3.4a2.769,2.769,0,0,1,.9.1,7.748,7.748,0,0,1,6.7,6.4A7.816,7.816,0,0,1,13.7,16,12.68,12.68,0,0,0,11,21.1l-.1.3v2.2A3.138,3.138,0,0,1,7.7,26.7ZM6.6,22.2a.215.215,0,0,0-.2.2v1.1a1.3,1.3,0,1,0,2.6,0V22.4a.215.215,0,0,0-.2-.2H6.6Zm1.1-17A5.785,5.785,0,0,0,3.8,6.7a6.059,6.059,0,0,0-2,4.4,6.162,6.162,0,0,0,1.3,3.7A16.649,16.649,0,0,1,6,20.2c0,.1.1.1.2.1H9a.349.349,0,0,0,.2-.1,14.666,14.666,0,0,1,3-5.4,5.448,5.448,0,0,0,1.2-4.6,5.633,5.633,0,0,0-5-4.9C8.2,5.3,7.9,5.2,7.7,5.2Z"/><path class="a" d="M14.7,69.6v-11a11.325,11.325,0,0,1,.6-3.6,10.989,10.989,0,0,1,1-2.2,11.234,11.234,0,0,1,3.6-3.9c.1,0,.1-.1.2-.1l.1-.1a10.791,10.791,0,0,1,4.4-1.6l4.8-.7c.1,0,.1-.1.2-.1l.7-2.6c0-.1,0-.2-.1-.2a9.109,9.109,0,0,1-3.9-5.3A5.5,5.5,0,0,1,26,36V31.5c0-.1,0-.1-.1-.1l-.1-.1h0c-.6,0-2-.1-2-1.4V28a10.029,10.029,0,0,1,10-10h2.3a10.029,10.029,0,0,1,10,10v1.8c0,1.2-.8,1.5-1.6,1.5h-.6a.349.349,0,0,0-.1.2V36a9.6,9.6,0,0,1-.3,2.2,8.713,8.713,0,0,1-3.9,5.3c-.1,0-.1.1-.1.2l.7,2.6c0,.1.1.1.2.1l4.8.7a10.548,10.548,0,0,1,2.4.6,7.835,7.835,0,0,1,2,1l.2.1c.1,0,.1.1.2.1a11.234,11.234,0,0,1,3.6,3.9s.7,1.4,1,2.2a11.325,11.325,0,0,1,.6,3.6v11H14.7ZM24.9,48.9a9.579,9.579,0,0,0-8.3,9.6v9a.215.215,0,0,0,.2.2H52.9a.215.215,0,0,0,.2-.2v-9a9.579,9.579,0,0,0-8.3-9.6l-5.1-.7h-.1l-2.8,2.1L35,51.8l-2-1.5-2.8-2.1h-.1C30,48.2,24.9,48.9,24.9,48.9Zm7.2-4.5h0c-.1.1-.2.1-.2.2l-.6,2.2c0,.1,0,.2.1.2l3.2,2.4h.2L38,47c.1,0,.1-.1.1-.2l-.6-2.2c0-.1,0-.1-.1-.1h-.2a7.457,7.457,0,0,1-2.6.4,11.083,11.083,0,0,1-2.5-.5ZM28,31.2a.215.215,0,0,0-.2.2v4.5a7,7,0,0,0,14,0V31.3a.215.215,0,0,0-.2-.2,8.117,8.117,0,0,1-4.5-2.5l-.1-.1h0c-.1,0-.1,0-.1.1a8.72,8.72,0,0,1-6.1,2.6Zm10.2-4.3a5.419,5.419,0,0,0,4.5,2.4h1.1a.215.215,0,0,0,.2-.2V28a8.066,8.066,0,0,0-8.1-8.1H33.6A8.066,8.066,0,0,0,25.5,28v1.1a.215.215,0,0,0,.2.2h5a6.8,6.8,0,0,0,5.6-3l.8-1.2Z"/></svg>