<svg xmlns="http://www.w3.org/2000/svg" width="70.004" height="70.004" viewBox="0 0 70.004 70.004"><defs><style>.a{fill:#80e315;}</style></defs><path class="a" d="M49.1,30.6a7.221,7.221,0,0,0-1-4.7,7.039,7.039,0,0,0-6-3.3,5.867,5.867,0,0,0-2.3.4,7.051,7.051,0,0,0-13.6,1.3h-.1a6.161,6.161,0,0,0-5.8,8.1,7.607,7.607,0,0,0-2.8,1.5,6.071,6.071,0,0,0-2,4.5,6.231,6.231,0,0,0,6.2,6.2H48.4a7.018,7.018,0,0,0,.7-14Zm-.7,11.5H21.7a3.585,3.585,0,0,1-3.6-3.6,3.63,3.63,0,0,1,3.5-3.6c.4,0,2.4.5,2.1-1.4a1.141,1.141,0,0,0-.3-.6,3.337,3.337,0,0,1-.6-3.8A3.606,3.606,0,0,1,26,26.9a4.484,4.484,0,0,1,1.1.1,1.261,1.261,0,0,0,1.6-1.4,4.456,4.456,0,0,1,4.4-4.8A4.4,4.4,0,0,1,37.5,25a1.246,1.246,0,0,0,2,.9,4.464,4.464,0,0,1,6.6,5.5,2.768,2.768,0,0,0-.1.9c.3,1.4,1.9.9,2.4.9a4.45,4.45,0,0,1,0,8.9Z"/><path class="a" d="M56.3,13.3a1.985,1.985,0,0,1-3-2.6,1.985,1.985,0,0,1,3,2.6Zm-4.6-4a4.069,4.069,0,0,0-.3,4.9l-2.5,2.9a1.063,1.063,0,1,0,1.6,1.4L53,15.6a4.045,4.045,0,0,0,4.4-6.7A4.19,4.19,0,0,0,51.7,9.3Z"/><path class="a" d="M66,35.2a2,2,0,1,1,1.9-2.1A2.005,2.005,0,0,1,66,35.2Zm-.3-6A3.956,3.956,0,0,0,62,32.4l-3.8.2a1.051,1.051,0,1,0,.1,2.1l3.8-.2A4.052,4.052,0,0,0,70,33,4.173,4.173,0,0,0,65.7,29.2Z"/><path class="a" d="M56.2,56.8a1.981,1.981,0,1,1,2.8-.1A2.128,2.128,0,0,1,56.2,56.8Zm4.1-4.5a3.933,3.933,0,0,0-4.9-.4l-2.8-2.6a1.063,1.063,0,0,0-1.4,1.6L54,53.5a4.145,4.145,0,0,0,.9,4.9,3.988,3.988,0,0,0,5.7-.3A4.2,4.2,0,0,0,60.3,52.3Z"/><path class="a" d="M34.2,66a2,2,0,1,1,2.1,1.9A2.005,2.005,0,0,1,34.2,66Zm6.1-.2A4.054,4.054,0,0,0,37.1,62l-.2-3.8a1.051,1.051,0,1,0-2.1.1l.2,3.8a4.2,4.2,0,0,0-2.9,4,4.1,4.1,0,0,0,8.2-.3Z"/><path class="a" d="M12.8,55.8a1.981,1.981,0,1,1,.1,2.8A2.023,2.023,0,0,1,12.8,55.8Zm4.4,4.1a4.089,4.089,0,0,0,.5-4.9l2.6-2.8a1.061,1.061,0,0,0-1.5-1.5l-2.6,2.8a4.049,4.049,0,1,0,1,6.4Z"/><path class="a" d="M4,33.6a1.951,1.951,0,0,1,.1,3.9,1.923,1.923,0,0,1-2-1.9A2.054,2.054,0,0,1,4,33.6Zm.1,6.1A4.17,4.17,0,0,0,8,36.6l3.8-.1a1.051,1.051,0,1,0-.1-2.1L8,34.5a4,4,0,0,0-4-2.9,4.05,4.05,0,0,0,.1,8.1Z"/><path class="a" d="M14.7,12.4a1.98,1.98,0,0,1-2.8,2.8,1.98,1.98,0,0,1,2.8-2.8Zm-4.2,4.3a4.093,4.093,0,0,0,4.9.6L18.1,20a1.061,1.061,0,0,0,1.5-1.5l-2.7-2.7a3.956,3.956,0,0,0-.7-4.9,4.066,4.066,0,1,0-5.7,5.8Z"/><path class="a" d="M37,4.1a2,2,0,1,1-2-2A2.006,2.006,0,0,1,37,4.1Zm-6.1,0a3.99,3.99,0,0,0,3,3.9v3.8a1,1,0,0,0,1,1,1.075,1.075,0,0,0,1-1V8a4.079,4.079,0,0,0,3-3.9A3.834,3.834,0,0,0,35,0,4.118,4.118,0,0,0,30.9,4.1Z"/></svg>