<svg xmlns="http://www.w3.org/2000/svg" width="68.95" height="68.95" viewBox="0 0 68.95 68.95"><defs><style>.a{fill:#80e315;}</style></defs><g transform="translate(-0.225 -0.225)"><path class="a" d="M67.9,21,48.4,1.5a4.529,4.529,0,0,0-6.3,0L1.5,42.2a4.529,4.529,0,0,0,0,6.3L21,67.9h0a4.529,4.529,0,0,0,6.3,0L67.9,27.3A4.528,4.528,0,0,0,67.9,21ZM26.1,66.7a2.716,2.716,0,0,1-3.9,0L2.7,47.3a2.716,2.716,0,0,1,0-3.9L8,38,31.4,61.4Zm6.5-6.4L9.2,36.9,40,6,63.4,29.4Zm32-32L41.1,4.9l2.2-2.2a2.716,2.716,0,0,1,3.9,0L66.7,22.2a2.716,2.716,0,0,1,0,3.9l-2.1,2.2Z"/><path class="a" d="M18.4,51.1a3.394,3.394,0,1,0,0,4.8A3.441,3.441,0,0,0,18.4,51.1Zm-3.7,3.6a1.768,1.768,0,1,1,2.5,0A1.751,1.751,0,0,1,14.7,54.7Z"/></g></svg>