<svg xmlns="http://www.w3.org/2000/svg" width="66.252" height="68.2" viewBox="0 0 66.252 68.2"><defs><style>.a{fill:#80e315;}</style></defs><g transform="translate(-1.336 -0.7)"><path class="a" d="M44.5,37.5a1.135,1.135,0,0,1-.8-.3L29.2,24.7a1.238,1.238,0,0,1-.1-1.7l6.6-7.7a.975.975,0,0,1,.9-.4,1.136,1.136,0,0,1,.8.3L51.9,27.7a1.238,1.238,0,0,1,.1,1.7l-6.6,7.7a1.268,1.268,0,0,1-.9.4ZM36.8,17.9c-.1,0-.1,0-.2.1l-4.8,5.6a.187.187,0,0,0,0,.3L44.2,34.6h.1c.1,0,.1,0,.2-.1l4.8-5.6s.1-.1,0-.1,0-.1-.1-.1L36.9,17.9Z"/><path class="a" d="M28.3,50.3a1.135,1.135,0,0,1-.8-.3l-8.6-7.5a1.238,1.238,0,0,1-.1-1.7.975.975,0,0,1,.9-.4,1.135,1.135,0,0,1,.8.3l8.6,7.5a1.234,1.234,0,0,1,.4.8,1.613,1.613,0,0,1-.3.9c-.2.3-.4.4-.9.4Z"/><path class="a" d="M24.3,55a1.135,1.135,0,0,1-.8-.3l-8.6-7.5a1.238,1.238,0,0,1-.1-1.7.975.975,0,0,1,.9-.4,1.135,1.135,0,0,1,.8.3l8.6,7.5a1.238,1.238,0,0,1,.1,1.7,1.268,1.268,0,0,1-.9.4Z"/><path class="a" d="M20.2,59.7a1.135,1.135,0,0,1-.8-.3L10.8,52a1.234,1.234,0,0,1-.4-.8,1.613,1.613,0,0,1,.3-.9.975.975,0,0,1,.9-.4,1.135,1.135,0,0,1,.8.3L21,57.7a1.238,1.238,0,0,1,.1,1.7,1.9,1.9,0,0,1-.9.3Z"/><path class="a" d="M19.6,68.9a5.489,5.489,0,0,1-3.7-1.4L3.3,56.6a5.684,5.684,0,0,1-.6-8l11-12.7a3.658,3.658,0,0,0,.9-2.8,6.166,6.166,0,0,1,1.5-4.5L32.7,9.4a5.841,5.841,0,0,1,4.3-2,6.279,6.279,0,0,1,1.9.3H39c.1,0,.1,0,.2-.1l1.2-1.4A4.069,4.069,0,0,1,43,4.9h.3a3.541,3.541,0,0,1,2.6,1,4.2,4.2,0,0,1,1.4,2.7,3.833,3.833,0,0,1-1,2.9l-.9,1.1a.188.188,0,0,0,0,.3l3.2,2.8h.1c.1,0,.1,0,.1-.1l3.5-4.1a1.234,1.234,0,0,1,.8-.4h0a.984.984,0,0,1,.8.3l1.5,1.3h.1c.1,0,.1,0,.1-.1L65.5,1.1a.975.975,0,0,1,.9-.4,1.136,1.136,0,0,1,.8.3,1.238,1.238,0,0,1,.1,1.7l-10,11.5a.188.188,0,0,0,0,.3l1.5,1.3a1.238,1.238,0,0,1,.1,1.7l-3.5,4.1a.188.188,0,0,0,0,.3l1.9,1.7a6.416,6.416,0,0,1,2,3.9,5.566,5.566,0,0,1-1.4,4.1l-3.5,4.1c.3.2-.1.3-.4.3h0a1.135,1.135,0,0,1-.8-.3,1.234,1.234,0,0,1-.4-.8,1.613,1.613,0,0,1,.3-.9l3.5-4.1a3.069,3.069,0,0,0,.8-2.4,3.84,3.84,0,0,0-1.1-2.3L39.2,10.6A3.5,3.5,0,0,0,37,9.8h-.2a3.84,3.84,0,0,0-2.3,1.1L17.9,30.1a3.658,3.658,0,0,0-.9,2.8,6.166,6.166,0,0,1-1.5,4.5L4.5,50.1a3.418,3.418,0,0,0,.3,4.7L17.4,65.7a3.5,3.5,0,0,0,2.2.8,3.034,3.034,0,0,0,2.5-1.2l11-12.7a6.313,6.313,0,0,1,4.2-2.1,4.069,4.069,0,0,0,2.6-1.3l5-5.8a.975.975,0,0,1,.9-.4,1.135,1.135,0,0,1,.8.3,1.238,1.238,0,0,1,.1,1.7l-5,5.8a6.313,6.313,0,0,1-4.2,2.1,4.069,4.069,0,0,0-2.6,1.3L24,66.9a6.416,6.416,0,0,1-3.9,2ZM53.5,14.1c-.1,0-.1,0-.2.1l-2.6,3a.188.188,0,0,0,0,.3l3,2.6h.1c.1,0,.1,0,.1-.1l2.6-3s.1-.1,0-.1,0-.1-.1-.1l-3-2.6C53.6,14.1,53.5,14.1,53.5,14.1ZM43.2,7.2a1.382,1.382,0,0,0-1.1.6l-.9,1.1a.188.188,0,0,0,0,.3l2.2,1.9h.1c.1,0,.1,0,.1-.1l.9-1.1A1.274,1.274,0,0,0,45,8.8a1.382,1.382,0,0,0-.6-1.1,1.5,1.5,0,0,0-1.1-.4Z"/><path class="a" d="M27.5,36.8a3.541,3.541,0,0,1-2.6-1l-.9-.7a3.878,3.878,0,0,1-.4-5.6,4.051,4.051,0,0,1,3-1.4,3.541,3.541,0,0,1,2.6,1l.9.7a3.878,3.878,0,0,1,.4,5.6,4.2,4.2,0,0,1-2.7,1.4Zm-1-6.4a1.382,1.382,0,0,0-1.1.6,1.607,1.607,0,0,0,.2,2.3l.9.7a1.5,1.5,0,0,0,1.1.4,1.426,1.426,0,0,0,1.2-.6,1.607,1.607,0,0,0-.2-2.3l-.9-.7a1.5,1.5,0,0,0-1.1-.4Z"/><path class="a" d="M36.9,44.9a3.541,3.541,0,0,1-2.6-1l-.9-.7A4.2,4.2,0,0,1,32,40.5a3.833,3.833,0,0,1,1-2.9,4.2,4.2,0,0,1,2.7-1.4H36a3.541,3.541,0,0,1,2.6,1l.9.7a4.2,4.2,0,0,1,1.4,2.7,3.971,3.971,0,0,1-1,2.9,4.2,4.2,0,0,1-2.7,1.4Zm-1-6.4a1.382,1.382,0,0,0-1.1.6,1.746,1.746,0,0,0-.4,1.2,1.382,1.382,0,0,0,.6,1.1l.9.7a1.5,1.5,0,0,0,1.1.4,1.425,1.425,0,0,0,1.2-.6,1.607,1.607,0,0,0-.2-2.3l-.9-.7a1.5,1.5,0,0,0-1.1-.4Z"/><path class="a" d="M49.9,40.7a1.135,1.135,0,0,1-.8-.3,1.234,1.234,0,0,1-.4-.8,1.613,1.613,0,0,1,.3-.9,1.234,1.234,0,0,1,.8-.4h0a.984.984,0,0,1,.8.3,1.234,1.234,0,0,1,.4.8,1.613,1.613,0,0,1-.3.9.894.894,0,0,1-.8.4Z"/></g></svg>